<?xml version="1.0" encoding="utf-8"?>
<!-- Generator: Adobe Illustrator 23.0.5, SVG Export Plug-In . SVG Version: 6.00 Build 0)  -->
<svg version="1.1" id="Layer_1" xmlns="http://www.w3.org/2000/svg" xmlns:xlink="http://www.w3.org/1999/xlink" x="0px" y="0px"
	 viewBox="0 0 612 792" style="enable-background:new 0 0 612 792;" xml:space="preserve">
<style type="text/css">
	.st0{fill:#F68B21;}
	.st1{fill:#F57E20;}
	.st2{fill:#414142;}
	.st3{font-family:'MyriadPro-Regular';}
	.st4{font-size:12px;}
</style>
<g>
	<polygon class="st0" points="250.69,234.03 250.69,303.31 280.84,303.31 280.84,277.84 	"/>
	<path class="st1" d="M337.18,258.78c18.01-7.72,28.5-22.96,28.5-43.74c0-31.07-23.16-50.27-60.17-50.27H233.9l43.71,56.85v-30.73
		h26.13c19.59,0,29.49,8.91,29.49,24.15c0,15.04-9.9,24.15-29.49,24.15h-14.34l44.42,64.13h34.44L337.18,258.78z"/>
</g>
<g>
	<g>
		<path class="st2" d="M112.3,434.58l-7.87-11.37h-0.47h-8.22v11.37h-9.45v-40.82h17.67c10.91,0,17.73,5.66,17.73,14.81
			c0,6.12-3.09,10.61-8.4,12.89l9.16,13.12H112.3z M103.44,401.45h-7.7v14.23h7.7c5.77,0,8.69-2.68,8.69-7.11
			C112.13,404.07,109.21,401.45,103.44,401.45z"/>
		<path class="st2" d="M133.53,393.75h9.45v40.82h-9.45V393.75z"/>
		<path class="st2" d="M154.47,414.16c0-12.31,9.45-21.11,22.16-21.11c7.06,0,12.95,2.57,16.8,7.23l-6.06,5.6
			c-2.74-3.15-6.18-4.78-10.26-4.78c-7.64,0-13.06,5.37-13.06,13.06s5.42,13.06,13.06,13.06c4.08,0,7.52-1.63,10.26-4.84l6.06,5.6
			c-3.85,4.72-9.74,7.29-16.85,7.29C163.92,435.28,154.47,426.47,154.47,414.16z"/>
		<path class="st2" d="M200.72,414.16c0-12.13,9.45-21.11,22.34-21.11c12.83,0,22.34,8.92,22.34,21.11
			c0,12.19-9.51,21.11-22.34,21.11C210.17,435.28,200.72,426.29,200.72,414.16z M235.83,414.16c0-7.76-5.48-13.06-12.77-13.06
			s-12.77,5.31-12.77,13.06c0,7.76,5.48,13.06,12.77,13.06S235.83,421.92,235.83,414.16z"/>
		<path class="st2" d="M294.32,393.75v40.82h-7.76l-20.35-24.79v24.79h-9.33v-40.82h7.81l20.29,24.79v-24.79H294.32z"/>
		<path class="st2" d="M305.17,430.55l3.21-7.12c3.44,2.51,8.57,4.26,13.47,4.26c5.6,0,7.87-1.87,7.87-4.37
			c0-7.64-23.74-2.39-23.74-17.55c0-6.94,5.6-12.71,17.2-12.71c5.13,0,10.38,1.23,14.17,3.62l-2.92,7.17
			c-3.79-2.16-7.7-3.21-11.31-3.21c-5.6,0-7.76,2.1-7.76,4.67c0,7.52,23.74,2.33,23.74,17.32c0,6.82-5.66,12.66-17.32,12.66
			C315.32,435.28,308.79,433.35,305.17,430.55z"/>
		<path class="st2" d="M357.84,401.45h-13.06v-7.7h35.57v7.7h-13.06v33.12h-9.45V401.45z"/>
		<path class="st2" d="M415.81,434.58l-7.87-11.37h-0.47h-8.22v11.37h-9.45v-40.82h17.67c10.91,0,17.73,5.66,17.73,14.81
			c0,6.12-3.09,10.61-8.4,12.89l9.16,13.12H415.81z M406.94,401.45h-7.7v14.23h7.7c5.77,0,8.69-2.68,8.69-7.11
			C415.63,404.07,412.72,401.45,406.94,401.45z"/>
		<path class="st2" d="M436.69,416.61v-22.86h9.45v22.51c0,7.76,3.38,10.96,9.1,10.96c5.77,0,9.1-3.21,9.1-10.96v-22.51h9.33v22.86
			c0,12.01-6.88,18.66-18.49,18.66S436.69,428.63,436.69,416.61z"/>
		<path class="st2" d="M484.8,414.16c0-12.31,9.45-21.11,22.16-21.11c7.06,0,12.95,2.57,16.8,7.23l-6.07,5.6
			c-2.74-3.15-6.18-4.78-10.26-4.78c-7.64,0-13.06,5.37-13.06,13.06s5.42,13.06,13.06,13.06c4.08,0,7.52-1.63,10.26-4.84l6.07,5.6
			c-3.85,4.72-9.74,7.29-16.85,7.29C494.25,435.28,484.8,426.47,484.8,414.16z"/>
		<path class="st2" d="M542.54,401.45h-13.06v-7.7h35.57v7.7h-13.06v33.12h-9.45V401.45z"/>
	</g>
</g>
<g>
	<g>
		<path class="st0" d="M304.91,384.4l-6.51-4.03c-30.45-18.84-87.12-53.91-102.49-117.16c-9.55-39.3-17.58-84.99-15.76-125.45
			l7.8-1.97c0.05-0.01,0.11-0.03,0.16-0.04l0.31-0.08c0.02,0,0.03-0.01,0.05-0.01l116.45-29.42l116.88,29.53
			c0.03,0.01,0.06,0.01,0.09,0.02l10.4,2.63c-1.5,40.58-9.86,89.81-18.37,124.78c-15.37,63.24-72.04,98.31-102.48,117.15
			L304.91,384.4z M201.47,154.81c0.37,14.94,2.75,50.55,15.56,103.27c12.56,51.67,57.84,82.03,87.87,100.74
			c30.03-18.71,75.31-49.07,87.87-100.74c12.87-52.95,15.22-88.39,15.57-103.26l-103.44-26.14L201.47,154.81z"/>
	</g>
</g>
<rect x="49.67" y="610" class="st2" width="104.8" height="104.8"/>
<rect x="181.5" y="610" class="st0" width="104.8" height="104.8"/>
<text transform="matrix(1 0 0 1 68.9998 730.0003)"><tspan x="0" y="0" class="st3 st4">C: 61%</tspan><tspan x="0" y="14.4" class="st3 st4">M: 61%</tspan><tspan x="0" y="28.8" class="st3 st4">Y: 59%</tspan><tspan x="0" y="43.2" class="st3 st4">K:46</tspan></text>
<text transform="matrix(1 0 0 1 200.7176 738.0007)"><tspan x="0" y="0" class="st3 st4">C: 0%</tspan><tspan x="0" y="14.4" class="st3 st4">M: 55%</tspan><tspan x="0" y="28.8" class="st3 st4">Y: 99%</tspan><tspan x="0" y="43.2" class="st3 st4">K: 0%</tspan></text>
</svg>
